HIERARCHY
ROOT Hips
{
	OFFSET 0.00 86.18 0.00
	CHANNELS 6 Xposition Yposition Zposition Yrotation Xrotation Zrotation
	JOINT RightUpLeg
	{
		OFFSET -9.25 0.00 0.00
		CHANNELS 6 Xposition Yposition Zposition Yrotation Xrotation Zrotation
		JOINT RightLeg
		{
			OFFSET 0.00 -42.00 0.00
			CHANNELS 6 Xposition Yposition Zposition Yrotation Xrotation Zrotation
			JOINT RightFoot
			{
				OFFSET 0.00 -42.00 0.00
				CHANNELS 6 Xposition Yposition Zposition Yrotation Xrotation Zrotation
				End Site
				{
					OFFSET 0 -1.14 11.36
				}
			}
		}
	}
	JOINT LeftUpLeg
	{
		OFFSET 9.25 0.00 0.00
		CHANNELS 6 Xposition Yposition Zposition Yrotation Xrotation Zrotation
		JOINT LeftLeg
		{
			OFFSET 0.00 -42.00 0.00
			CHANNELS 6 Xposition Yposition Zposition Yrotation Xrotation Zrotation
			JOINT LeftFoot
			{
				OFFSET 0.00 -42.00 0.00
				CHANNELS 6 Xposition Yposition Zposition Yrotation Xrotation Zrotation
				End Site
				{
					OFFSET 0 -1.14 11.36
				}
			}
		}
	}
	JOINT Spine
	{
		OFFSET 0.00 10.46 0.00
		CHANNELS 6 Xposition Yposition Zposition Yrotation Xrotation Zrotation
		JOINT Spine1
		{
			OFFSET 0.00 9.75 0.00
			CHANNELS 6 Xposition Yposition Zposition Yrotation Xrotation Zrotation
			JOINT Spine2
			{
				OFFSET 0.00 10.15 0.00
				CHANNELS 6 Xposition Yposition Zposition Yrotation Xrotation Zrotation
				JOINT Spine3
				{
					OFFSET 0.00 9.75 0.00
					CHANNELS 6 Xposition Yposition Zposition Yrotation Xrotation Zrotation
			 		JOINT Neck
					{
						OFFSET 0.00 10.42 0.00
						CHANNELS 6 Xposition Yposition Zposition Yrotation Xrotation Zrotation
						JOINT Head
						{
							OFFSET 0.00 9.50 0.00
							CHANNELS 6 Xposition Yposition Zposition Yrotation Xrotation Zrotation
							End Site
							{
								OFFSET 0 16.00 0
							}
						}    
					} 
					JOINT RightShoulder
	 					{
						OFFSET -3.20 6.94 0.00
						CHANNELS 6 Xposition Yposition Zposition Yrotation Xrotation Zrotation
						JOINT RightArm
						{
							OFFSET -16.00 0.00 0.00
							CHANNELS 6 Xposition Yposition Zposition Yrotation Xrotation Zrotation
							JOINT RightForeArm
							{
								OFFSET -26.50 0.00 0.00
								CHANNELS 6 Xposition Yposition Zposition Yrotation Xrotation Zrotation
								JOINT RightHand
								{
									OFFSET -26.00 0.00 0.00
									CHANNELS 6 Xposition Yposition Zposition Yrotation Xrotation Zrotation
									End Site
									{
										OFFSET -17.50 0 0
									}
								}
							}
						}	
					}
					JOINT LeftShoulder
					{
						OFFSET 3.20 6.94 0.00
						CHANNELS 6 Xposition Yposition Zposition Yrotation Xrotation Zrotation
						JOINT LeftArm
						{
							OFFSET 16.00 0.00 0.00
							CHANNELS 6 Xposition Yposition Zposition Yrotation Xrotation Zrotation
							JOINT LeftForeArm
							{
								OFFSET 26.50 0.00 0.00
								CHANNELS 6 Xposition Yposition Zposition Yrotation Xrotation Zrotation
								JOINT LeftHand
								{
									OFFSET 26.00 0.00 0.00
									CHANNELS 6 Xposition Yposition Zposition Yrotation Xrotation Zrotation
									End Site
									{
										OFFSET 17.50 0 0
									}
								}
							}
						}
					}     			
				}
			}
		} 
	} 
}
MOTION
Frames: 12
Frame Time: 0.010
-401.10 73.59 -45.79 -83.20 -10.11 -0.13 -9.25 0.37 0.27 6.77 -44.39 -14.21 0.11 -41.74 0.01 -27.59 41.17 -13.56 0.07 -41.07 -0.41 0.35 -14.61 16.77 8.19 0.00 5.58 14.49 20.32 11.07 -2.22 -39.47 5.88 -25.05 50.95 -1.38 0.01 -41.35 0.08 22.76 -3.05 -11.92 0.14 10.42 0.46 -21.77 9.29 2.56 0.23 9.81 0.42 -5.42 3.26 0.86 -0.05 10.14 -0.22 -8.33 6.50 1.31 -0.04 9.76 -0.09 -0.45 0.75 0.19 0.36 10.34 1.03 -0.45 0.77 0.18 0.40 9.68 1.16 -7.49 16.46 2.38 -3.19 6.98 -0.06 12.53 -2.24 3.59 -16.02 0.19 -0.00 -44.53 26.57 44.32 -26.41 -0.07 0.08 19.33 10.36 2.14 -25.96 -0.07 0.02 8.72 26.17 -20.84 3.21 6.99 -0.07 -5.64 0.70 8.21 16.45 1.20 0.99 -35.85 -23.83 -37.02 26.92 1.23 0.34 -52.84 2.44 21.21 25.59 -0.19 -0.90 -9.93 -2.63 -1.99 
-407.24 72.76 -45.87 -83.18 -10.01 0.57 -9.29 0.37 0.30 6.84 -42.60 -14.34 0.08 -41.66 -0.08 -24.63 36.11 -10.43 0.03 -41.28 -0.14 0.50 -17.10 19.07 8.39 0.04 4.60 14.12 21.22 11.06 -1.51 -39.19 4.93 -25.26 49.91 -1.96 0.29 -41.57 -0.19 20.56 7.90 -11.94 0.10 10.42 0.46 -22.08 8.28 2.81 0.21 9.84 0.40 -5.50 2.93 0.89 -0.06 10.14 -0.25 -8.47 5.90 1.38 -0.03 9.76 -0.11 -0.39 0.85 0.18 0.26 10.35 0.99 -0.39 0.87 0.18 0.35 9.70 1.11 -6.21 18.00 2.39 -3.25 6.96 -0.16 12.74 -1.87 4.16 -16.02 0.30 -0.20 -47.76 25.60 43.47 -26.43 -0.01 0.04 19.83 9.78 0.69 -25.97 -0.06 0.01 8.33 25.26 -19.75 3.17 6.98 -0.06 -6.50 2.41 9.83 16.47 1.05 0.93 -33.14 -26.70 -37.48 26.82 1.12 0.35 -52.66 2.55 20.20 25.62 -0.21 -0.79 -11.56 -1.29 -1.23 
-410.84 71.86 -46.52 -83.27 -10.21 1.36 -9.28 0.31 0.28 6.47 -40.67 -14.27 0.10 -41.58 -0.24 -21.77 32.53 -7.95 -0.03 -41.47 -0.07 0.26 -19.86 20.76 8.48 0.02 3.80 14.15 21.61 11.29 -0.98 -39.04 4.12 -26.39 49.48 -3.18 0.45 -41.68 -0.42 18.82 12.84 -9.65 0.08 10.42 0.46 -21.88 7.44 2.92 0.21 9.85 0.38 -5.45 2.63 0.90 -0.05 10.15 -0.26 -8.42 5.30 1.39 -0.02 9.76 -0.10 -0.35 0.88 0.17 0.18 10.35 0.89 -0.35 0.90 0.17 0.31 9.66 1.02 -5.61 18.35 2.25 -3.27 6.95 -0.22 9.79 0.38 4.72 -15.97 0.32 -0.29 -47.63 23.46 43.88 -26.44 0.01 0.03 20.47 8.51 -0.18 -25.97 -0.06 0.04 7.82 24.22 -19.86 3.17 6.97 -0.07 -7.30 4.88 11.13 16.43 0.93 0.80 -30.60 -30.30 -37.60 26.74 0.99 0.35 -52.64 2.19 18.38 25.64 -0.24 -0.68 -12.97 0.67 -0.34 
-411.62 71.11 -46.89 -83.32 -10.90 1.97 -9.23 0.25 0.29 5.64 -38.53 -13.61 0.17 -41.60 -0.23 -20.72 30.16 -7.77 -0.10 -42.12 0.25 -1.07 -24.53 25.59 8.48 -0.05 3.32 14.42 21.69 11.68 -0.92 -39.25 3.78 -28.32 51.52 -4.35 0.30 -42.05 -0.47 16.60 8.91 -10.48 0.07 10.41 0.43 -21.37 6.99 2.93 0.22 9.83 0.33 -5.32 2.45 0.89 -0.03 10.15 -0.26 -8.25 4.92 1.38 -0.00 9.76 -0.09 -0.35 0.85 0.16 0.12 10.33 0.74 -0.36 0.87 0.16 0.28 9.60 0.88 -5.70 17.76 2.05 -3.21 6.96 -0.17 5.20 3.33 5.17 -15.88 0.29 -0.22 -45.45 21.01 45.35 -26.43 0.01 0.05 20.97 6.67 -0.77 -25.97 -0.02 0.09 7.37 22.87 -21.64 3.19 6.97 -0.13 -6.45 6.89 12.30 15.44 0.36 0.95 -21.53 -38.45 -39.68 26.71 -0.30 0.66 -55.31 3.38 7.97 25.63 -0.28 -0.59 -14.16 2.53 0.46 
-414.11 73.30 -47.82 -83.45 -11.65 2.31 -9.26 0.16 0.26 3.74 -36.86 -12.14 0.18 -41.60 -0.14 -20.81 28.57 -8.66 0.03 -38.34 -0.44 -0.53 -23.59 26.96 8.59 -0.07 2.89 15.30 20.96 12.38 -0.89 -39.54 3.40 -30.41 54.71 -5.82 0.75 -45.07 1.98 14.45 6.64 -12.29 0.06 10.41 0.42 -20.60 6.75 3.01 0.22 9.79 0.29 -5.12 2.33 0.90 -0.02 10.14 -0.23 -7.97 4.65 1.41 0.00 9.75 -0.06 -0.38 0.81 0.14 0.07 10.29 0.60 -0.39 0.83 0.14 0.27 9.54 0.77 -6.33 17.01 1.77 -3.14 6.98 -0.03 2.65 4.73 5.71 -15.79 0.26 0.01 -44.69 19.87 46.82 -26.38 0.01 0.09 21.01 4.26 -1.47 -25.98 0.06 0.14 7.06 21.30 -24.75 3.21 7.00 -0.15 -3.90 7.53 13.17 15.45 0.38 0.79 -22.67 -38.55 -42.55 26.67 -0.29 0.56 -55.99 2.98 8.33 25.64 -0.24 -0.49 -15.33 3.78 1.12 
-415.30 74.51 -47.96 -83.78 -12.06 2.59 -9.32 0.07 0.24 1.66 -35.76 -11.01 0.06 -41.63 -0.15 -20.59 28.23 -8.86 0.06 -38.66 -0.48 1.34 -22.97 27.77 8.72 -0.09 2.47 16.22 19.10 12.82 -0.84 -39.94 3.07 -32.72 59.10 -8.10 0.68 -44.69 1.84 14.30 5.92 -14.38 0.05 10.41 0.41 -19.50 6.45 3.24 0.20 9.75 0.25 -4.84 2.19 0.95 -0.02 10.14 -0.21 -7.56 4.34 1.49 0.01 9.74 -0.04 -0.44 0.80 0.12 0.06 10.24 0.53 -0.45 0.81 0.12 0.28 9.52 0.76 -7.54 17.02 1.23 -3.12 6.99 0.02 2.89 3.71 6.54 -15.79 0.22 -0.01 -46.03 20.29 47.38 -26.35 -0.00 0.08 20.32 1.54 -1.93 -26.01 0.12 0.21 6.88 19.99 -28.38 3.20 7.00 -0.12 -0.92 7.93 13.76 15.51 0.07 0.47 -27.08 -39.38 -42.82 26.71 -0.42 0.08 -54.16 1.87 8.86 25.60 -0.50 -0.13 -13.24 4.23 3.81 
-418.07 75.50 -47.60 -84.36 -12.49 2.88 -9.33 0.03 0.21 -0.63 -34.50 -10.37 0.08 -41.62 -0.13 -19.10 28.83 -8.08 -0.23 -38.62 -0.28 5.93 -18.51 28.55 8.83 -0.14 2.02 16.69 16.72 12.76 -0.72 -40.36 2.76 -35.35 63.78 -11.09 0.59 -44.28 1.70 17.36 3.80 -16.32 0.05 10.41 0.37 -18.13 6.28 3.55 0.16 9.71 0.19 -4.49 2.08 1.02 -0.04 10.14 -0.20 -7.04 4.10 1.61 -0.00 9.75 -0.04 -0.53 0.82 0.10 0.08 10.23 0.49 -0.53 0.84 0.10 0.32 9.54 0.73 -9.17 17.82 0.51 -3.13 6.99 -0.00 3.85 1.77 7.15 -15.77 0.21 -0.09 -47.07 21.04 47.73 -26.33 0.00 0.03 18.87 -0.96 -1.79 -26.04 0.19 0.26 6.73 19.45 -31.19 3.18 6.95 -0.06 0.37 8.32 13.64 15.63 -0.25 0.28 -30.34 -39.85 -42.53 26.77 -0.55 -0.37 -51.53 0.96 9.41 25.61 -0.43 -0.12 -13.20 5.08 3.98 
-421.62 75.62 -47.61 -85.82 -13.29 3.05 -9.21 0.04 0.15 -3.64 -32.99 -9.05 0.15 -41.63 -0.18 -14.62 29.05 -4.92 -0.13 -37.97 -0.14 7.52 -6.83 22.41 8.96 -0.31 1.44 17.19 14.26 12.55 -0.57 -40.05 2.19 -38.92 66.69 -15.25 0.36 -43.95 0.77 22.34 3.13 -17.26 0.10 10.41 0.31 -16.35 6.61 4.07 0.15 9.68 0.07 -4.03 2.14 1.15 -0.05 10.14 -0.15 -6.31 4.15 1.83 -0.01 9.74 -0.01 -0.59 0.81 0.06 0.13 10.25 0.43 -0.60 0.83 0.06 0.36 9.54 0.67 -10.69 17.87 -0.56 -3.13 7.00 -0.01 4.14 0.10 7.13 -15.75 0.26 -0.22 -46.16 21.47 48.50 -26.34 0.01 -0.03 17.09 -2.75 -1.12 -26.05 0.24 0.24 6.44 20.09 -31.98 3.14 6.88 0.08 -1.01 6.86 11.64 15.81 -0.50 0.01 -31.32 -37.88 -42.17 26.79 -0.67 -0.82 -47.85 0.07 9.85 25.71 -0.24 -0.46 -17.01 5.23 3.52 
-426.00 76.25 -47.24 -88.11 -14.36 2.91 -9.43 -0.04 0.16 -6.71 -32.30 -6.03 -0.17 -41.61 -0.16 -10.57 31.86 -3.58 -0.07 -38.40 -0.31 7.29 4.37 12.11 9.12 -0.60 0.91 17.96 11.47 12.39 -0.52 -39.71 1.78 -43.16 70.24 -20.62 0.15 -43.62 -0.03 26.99 1.67 -17.26 0.16 10.42 0.20 -14.23 7.60 4.96 0.13 9.60 -0.04 -3.47 2.39 1.38 -0.08 10.14 -0.07 -5.39 4.54 2.21 -0.02 9.75 0.02 -0.67 0.78 0.01 0.19 10.32 0.34 -0.67 0.80 0.01 0.39 9.53 0.58 -12.32 17.42 -1.68 -3.09 7.05 0.04 4.22 -2.90 6.59 -15.77 0.20 -0.08 -44.41 22.43 48.69 -26.36 -0.00 -0.05 15.25 -3.38 -0.33 -26.05 0.25 0.22 6.19 21.55 -30.36 3.17 6.96 -0.03 -1.48 6.84 10.93 15.94 -0.51 -0.43 -32.45 -38.50 -41.86 26.79 -0.82 -1.22 -42.94 -0.72 10.13 25.86 -0.07 -0.75 -22.01 5.05 3.25 
-428.77 78.66 -47.57 -90.27 -15.85 2.11 -9.43 -0.03 0.02 -8.33 -31.56 -4.69 -0.13 -41.50 -0.10 -7.72 37.59 -1.52 -0.09 -40.92 -0.34 7.61 -0.23 10.77 9.54 -0.72 0.45 17.93 8.38 12.27 -0.45 -40.83 1.92 -29.26 79.15 -9.76 0.14 -43.40 0.69 25.22 -4.24 -17.13 0.32 10.43 0.11 -13.21 9.11 6.09 0.23 9.54 -0.09 -3.18 2.83 1.68 -0.08 10.15 -0.00 -4.82 5.31 2.70 0.01 9.74 0.02 -0.67 0.77 -0.04 0.27 10.40 0.23 -0.67 0.79 -0.04 0.41 9.53 0.51 -12.67 16.95 -2.56 -3.08 7.06 -0.06 8.07 -7.48 6.34 -15.76 0.22 -0.10 -44.79 23.25 47.35 -26.39 -0.01 -0.07 13.27 -2.82 0.43 -26.06 0.25 0.20 6.74 23.18 -27.28 3.22 6.94 -0.07 0.71 7.36 10.78 16.00 -0.39 -0.33 -32.24 -38.50 -43.81 26.85 -0.85 -1.10 -39.53 -1.06 10.85 25.89 -0.03 -0.59 -24.15 5.64 3.89 
-431.96 79.78 -47.74 -91.68 -17.04 -0.13 -9.25 0.15 0.07 -11.14 -30.98 -2.67 -0.02 -41.59 0.22 -4.60 44.51 1.17 -0.17 -42.90 0.07 8.44 -5.86 9.33 9.99 -0.61 0.30 16.25 4.41 12.84 -0.26 -41.10 1.72 -9.31 84.35 7.28 0.04 -43.17 0.51 25.89 -8.40 -16.08 0.39 10.46 0.06 -12.19 10.89 7.94 0.30 9.58 -0.07 -2.87 3.35 2.16 -0.12 10.16 0.07 -4.17 6.20 3.49 0.01 9.74 0.03 -0.69 0.75 -0.05 0.27 10.43 0.17 -0.69 0.77 -0.05 0.40 9.52 0.45 -13.09 16.49 -2.78 -3.19 6.91 -0.26 9.45 -10.27 6.35 -15.70 0.27 -0.35 -41.49 22.42 47.28 -26.36 -0.03 -0.05 11.52 -1.12 1.46 -26.03 0.22 0.20 8.09 24.19 -24.60 3.23 6.93 -0.01 1.31 8.29 10.98 16.05 -0.30 -0.23 -30.58 -38.38 -45.82 26.82 -0.85 -0.98 -36.01 -2.04 11.48 25.90 0.00 -0.43 -25.85 6.71 4.64 
-436.38 78.22 -47.05 -93.11 -17.90 -1.92 -9.24 0.22 0.27 -12.06 -30.84 -0.37 -0.08 -41.51 0.29 -2.40 50.98 2.29 -0.20 -42.77 0.42 7.55 -5.49 1.57 9.90 -0.54 0.12 14.11 0.13 13.01 -0.18 -41.45 1.48 73.84 88.67 87.98 -0.16 -42.99 0.50 28.08 -13.39 -16.18 0.41 10.49 -0.04 -11.11 12.46 9.57 0.30 9.64 -0.09 -2.56 3.80 2.58 -0.17 10.16 0.11 -3.51 6.90 4.17 0.01 9.74 0.02 -0.69 0.74 -0.06 0.25 10.42 0.14 -0.70 0.76 -0.07 0.39 9.52 0.40 -13.16 16.23 -3.00 -3.25 6.86 -0.27 6.23 -8.40 6.54 -15.67 0.25 -0.20 -31.59 18.92 50.06 -26.30 -0.11 0.05 10.89 1.20 2.76 -25.94 0.14 0.18 9.00 24.49 -24.36 3.19 6.95 0.04 0.58 8.85 10.79 16.16 -0.85 -0.59 -30.01 -40.21 -45.42 27.59 -1.18 -2.65 -36.01 -2.04 11.48 25.88 -0.07 -1.63 -19.87 7.85 4.52 
